<?xml version="1.0" standalone="no"?><!DOCTYPE svg PUBLIC "-//W3C//DTD SVG 1.1//EN" "http://www.w3.org/Graphics/SVG/1.1/DTD/svg11.dtd"><svg t="1545901461525" class="icon" style="" viewBox="0 0 1024 1024" version="1.1" xmlns="http://www.w3.org/2000/svg" p-id="3117" xmlns:xlink="http://www.w3.org/1999/xlink" width="240" height="240"><defs><style type="text/css"></style></defs><path d="M572.288 954.368l-15.104 8.768c-10.048 5.824-21.056 8.576-31.936 8.576-22.08 0-43.584-11.456-55.488-31.936l-32.064-55.424c-8.512-14.72-10.816-32.192-6.4-48.64 4.352-16.384 15.104-30.4 29.824-38.848l14.464-8.32c-3.328-17.344-4.992-34.944-4.992-52.544 0-17.536 1.664-35.136 4.992-52.48l-14.528-8.32c-30.592-17.664-41.088-56.832-23.424-87.424l32-55.424C478.208 517.568 492.16 506.816 508.544 502.464c5.44-1.472 11.008-2.176 16.576-2.176 11.136 0 22.208 2.88 32 8.576l15.168 8.704c14.656-12.48 30.656-23.104 47.296-32.384C594.752 473.088 566.4 463.488 533.76 457.216L533.76 425.6c75.456-36.032 128-112.448 128-201.6 0-123.712-100.288-224-224-224s-224 100.288-224 224c0 89.216 52.544 165.568 128 201.6l0 31.616c-255.104 48.896-256 295.936-256 438.784 0 111.616 346.688 144.832 553.408 99.776C615.232 984.768 592.448 971.584 572.288 954.368z" p-id="3118"></path><path d="M966.272 818.88 1024 852.16l-32 55.488-58.304-33.664c-34.688 43.968-85.056 74.304-143.104 82.688l0.064 67.264L726.592 1024l0-67.328c-57.984-8.384-108.352-38.656-143.04-82.688l-58.304 33.664-32.064-55.424 57.792-33.344c-10.304-25.664-16.32-53.568-16.32-82.944s6.016-57.216 16.256-82.88L493.12 619.712l32-55.424 58.304 33.664c34.752-44.032 85.12-74.368 143.104-82.752L726.528 447.936l64 0L790.528 515.2c57.984 8.384 108.352 38.656 143.104 82.688l58.24-33.664L1024 619.712l-57.728 33.344c10.304 25.664 16.32 53.568 16.32 82.944S976.576 793.216 966.272 818.88zM758.592 606.848c-71.232 0-129.024 57.792-129.024 129.088s57.728 129.088 129.024 129.088c71.296 0 129.088-57.792 129.088-129.088S829.888 606.848 758.592 606.848z" p-id="3119"></path></svg>