<?xml version="1.0" standalone="no"?><!DOCTYPE svg PUBLIC "-//W3C//DTD SVG 1.1//EN" "http://www.w3.org/Graphics/SVG/1.1/DTD/svg11.dtd"><svg t="1548660411389" class="icon" style="" viewBox="0 0 1024 1024" version="1.1" xmlns="http://www.w3.org/2000/svg" p-id="4918" xmlns:xlink="http://www.w3.org/1999/xlink" width="240" height="240"><defs><style type="text/css"></style></defs><path d="M778.901615 479.357807C707.790504 479.357807 543.765051 477.791483 543.765051 477.791483 543.765051 477.791483 544.203622 299.79442 544.203622 240.148801 544.203622 108.076358 649.272638 0.939794 778.901615 0.939794 908.530592 0.939794 1013.599608 108.076358 1013.599608 240.148801 1013.599608 372.283896 908.530592 479.357807 778.901615 479.357807L778.901615 479.357807ZM245.536955 1022.997553C115.907978 1022.997553 10.901615 915.923642 10.901615 783.851199 10.901615 651.716104 115.907978 544.642193 245.536955 544.642193 316.648067 544.642193 480.673519 546.208517 480.673519 546.208517 480.673519 546.208517 480.234949 724.20558 480.234949 783.851199 480.234949 915.923642 375.165932 1022.997553 245.536955 1022.997553L245.536955 1022.997553ZM10.901615 240.148801C10.901615 108.076358 115.907978 0.939794 245.536955 0.939794 375.165932 0.939794 480.234949 108.076358 480.234949 240.148801 480.234949 299.79442 480.673519 477.791483 480.673519 477.791483 480.673519 477.791483 316.648067 479.357807 245.536955 479.357807 115.907978 479.357807 10.901615 372.283896 10.901615 240.148801L10.901615 240.148801ZM1013.599608 783.851199C1013.599608 915.923642 908.530592 1022.997553 778.901615 1022.997553 649.272638 1022.997553 544.203622 915.923642 544.203622 783.851199 544.203622 724.20558 543.765051 546.208517 543.765051 546.208517 543.765051 546.208517 707.790504 544.642193 778.901615 544.642193 908.530592 544.642193 1013.599608 651.716104 1013.599608 783.851199L1013.599608 783.851199ZM607.295154 785.041605C607.295154 799.138522 607.357807 797.509545 607.42046 786.795888 608.548213 877.204112 693.756241 951.510524 782.660793 951.510524 872.129222 951.510524 944.681351 877.580029 944.681351 786.419971 944.681351 695.197259 872.129222 609.049437 782.660793 609.049437 733.603524 609.049437 608.109643 609.550661 608.109643 609.550661 608.109643 609.550661 607.608419 750.707783 607.42046 786.795888 607.42046 786.232012 607.295154 785.668135 607.295154 785.041605L607.295154 785.041605Z" p-id="4919"></path></svg>