<?xml version="1.0" standalone="no"?><!DOCTYPE svg PUBLIC "-//W3C//DTD SVG 1.1//EN" "http://www.w3.org/Graphics/SVG/1.1/DTD/svg11.dtd"><svg t="1559007057389" class="icon" style="" viewBox="0 0 1024 1024" version="1.1" xmlns="http://www.w3.org/2000/svg" p-id="2588" xmlns:xlink="http://www.w3.org/1999/xlink" width="400" height="400"><defs><style type="text/css"></style></defs><path d="M745.517971 418.581024a21.314999 21.314999 0 0 1 21.531999-21.338h42.264998a21.337999 21.337999 0 1 1 0 42.664999H767.04997a21.383999 21.383999 0 0 1-21.531999-21.326999z m21.531999 139.183994h42.264998a21.337999 21.337999 0 1 0 0-42.663998H767.04997a21.337999 21.337999 0 1 0 0 42.663998z m0 117.845996h42.264998a21.337999 21.337999 0 1 0 0-42.664999H767.04997a21.337999 21.337999 0 1 0 0 42.664999z m0 114.413995h42.264998a21.337999 21.337999 0 1 0 0-42.664998H767.04997a21.337999 21.337999 0 1 0 0 42.664998zM1023.99996 938.670003V1024H0v-85.329997h84.184997V64.072037A64.071997 64.071997 0 0 1 148.119994 0.00004h469.471982a63.853998 63.853998 0 0 1 63.922997 64.071997V277.830029h191.996993a86.369997 86.369997 0 0 1 86.312997 86.221997v554.835978a86.004997 86.004997 0 0 1-2.288 19.770999z m-342.473987-12.584999v12.584999h228.666991a41.279998 41.279998 0 0 0 5.023-19.769999V364.063026a41.691998 41.691998 0 0 0-41.692998-41.599999H681.846973v596.184977c0 2.494-0.115 4.943-0.32 7.38z m-255.99999-691.422973a42.538998 42.538998 0 0 0 42.629999 42.664998h85.409996a42.664998 42.664998 0 0 0 0-85.329996h-85.419996a42.538998 42.538998 0 0 0-42.619999 42.664998z m0 170.669993a42.538998 42.538998 0 0 0 42.629999 42.664999h85.409996a42.664998 42.664998 0 0 0 0-85.329997h-85.419996a42.538998 42.538998 0 0 0-42.619999 42.664998z m0 170.669993a42.538998 42.538998 0 0 0 42.629999 42.665999h85.409996a42.664998 42.664998 0 0 0 0-85.329997h-85.419996a42.538998 42.538998 0 0 0-42.619999 42.664998z m0 170.670994a42.538998 42.538998 0 0 0 42.629999 42.664998h85.409996a42.664998 42.664998 0 0 0 0-85.329997h-85.419996a42.538998 42.538998 0 0 0-42.619999 42.653999z m-255.99999-512.01098a42.538998 42.538998 0 0 0 42.629999 42.664998h85.409996a42.664998 42.664998 0 0 0 0-85.329996h-85.419996a42.538998 42.538998 0 0 0-42.619999 42.664998z m0 170.669993a42.538998 42.538998 0 0 0 42.629999 42.664999h85.409996a42.664998 42.664998 0 0 0 0-85.329997h-85.419996a42.538998 42.538998 0 0 0-42.619999 42.664998z m0 170.669993a42.538998 42.538998 0 0 0 42.629999 42.665999h85.409996a42.664998 42.664998 0 0 0 0-85.329997h-85.419996a42.538998 42.538998 0 0 0-42.619999 42.664998z m0 170.670994a42.538998 42.538998 0 0 0 42.629999 42.664998h85.409996a42.664998 42.664998 0 0 0 0-85.329997h-85.419996a42.538998 42.538998 0 0 0-42.619999 42.653999z" p-id="2589"></path></svg>