<?xml version="1.0" standalone="no"?><!DOCTYPE svg PUBLIC "-//W3C//DTD SVG 1.1//EN" "http://www.w3.org/Graphics/SVG/1.1/DTD/svg11.dtd"><svg t="1547097282699" class="icon" style="" viewBox="0 0 1024 1024" version="1.1" xmlns="http://www.w3.org/2000/svg" p-id="5709" xmlns:xlink="http://www.w3.org/1999/xlink" width="240" height="240"><defs><style type="text/css"></style></defs><path d="M360.4 542h-180v120.4h180.4v180.8h120V662.4h180.4V542H480.8V361.6h-120V542zM0 301.6c0-66.8 54-120.8 120.4-120.8h720.4v722.4c0 66.8-54 120.8-120.4 120.8h-600C54 1024 0 970 0 903.2V301.6z m904 481.6V120.4H300.4c-33.2 0 26.8-120.4 60-120.4H964c33.2 0 60 26.8 60 60.4v662.4c0 33.2-120 93.6-120 60.4z m0 0" p-id="5710"></path></svg>