<?xml version="1.0" standalone="no"?><!DOCTYPE svg PUBLIC "-//W3C//DTD SVG 1.1//EN" "http://www.w3.org/Graphics/SVG/1.1/DTD/svg11.dtd"><svg t="1550040443061" class="icon" style="" viewBox="0 0 1024 1024" version="1.1" xmlns="http://www.w3.org/2000/svg" p-id="18744" xmlns:xlink="http://www.w3.org/1999/xlink" width="400" height="400"><defs><style type="text/css"></style></defs><path d="M512 1024c-281.6 0-512-230.4-512-512s230.4-512 512-512 512 230.4 512 512-230.4 512-512 512z m230.4-699.733333c-8.533333 0-25.6 8.533333-34.133333 17.066666L435.2 622.933333 315.733333 503.466667c-8.533333-8.533333-25.6-17.066667-34.133333-17.066667-25.6 0-51.2 25.6-51.2 51.2 0 17.066667 8.533333 25.6 17.066667 34.133333l153.6 153.6c8.533333 8.533333 17.066667 17.066667 34.133333 17.066667 8.533333 0 25.6-8.533333 34.133333-17.066667l307.2-324.266666c8.533333-8.533333 17.066667-17.066667 17.066667-34.133334s-25.6-42.666667-51.2-42.666666z" fill="#37C3A4" p-id="18745"></path></svg>