<?xml version="1.0" standalone="no"?><!DOCTYPE svg PUBLIC "-//W3C//DTD SVG 1.1//EN" "http://www.w3.org/Graphics/SVG/1.1/DTD/svg11.dtd"><svg t="1550128010069" class="icon" style="" viewBox="0 0 1024 1024" version="1.1" xmlns="http://www.w3.org/2000/svg" p-id="10137" xmlns:xlink="http://www.w3.org/1999/xlink" width="400" height="400"><defs><style type="text/css"></style></defs><path d="M510 0C228.336 0 0 228.384 0 510c0 281.632 228.336 510 510 510s510-228.368 510-510C1020 228.384 791.664 0 510 0z m239.136 545.616L589.76 689.008l-0.112-0.16c-8.448 7.632-19.568 12.4-31.872 12.4-26.416 0-47.824-21.424-47.824-47.84 0-14.064 6.224-26.608 15.904-35.376l-0.096-0.16 66.768-60.096H302.736c-26.416 0-47.84-21.408-47.84-47.824s21.408-47.84 47.84-47.84h289.792l-66.768-60.08 0.096-0.144c-9.68-8.768-15.904-21.328-15.904-35.392 0-26.416 21.408-47.84 47.824-47.84 12.32 0 23.424 4.784 31.872 12.4l0.112-0.176 159.376 143.408-0.112 0.144c9.68 8.784 15.92 21.344 15.92 35.408s-6.24 26.624-15.92 35.376l0.112 0.4z" p-id="10138"></path></svg>