<?xml version="1.0" standalone="no"?><!DOCTYPE svg PUBLIC "-//W3C//DTD SVG 1.1//EN" "http://www.w3.org/Graphics/SVG/1.1/DTD/svg11.dtd"><svg t="1542614126889" class="icon" style="" viewBox="0 0 1024 1024" version="1.1" xmlns="http://www.w3.org/2000/svg" p-id="2497" xmlns:xlink="http://www.w3.org/1999/xlink" width="240" height="240"><defs><style type="text/css"></style></defs><path d="M679.6 330.7c20.4-23.8 33.8-43.2 42.7-58.1 14-23.7 20-51.4 15.6-78.5-15.7-97.2-134.6-59.6-134.6-59.6s-87.7-87.2-182.6 0c0 0-118.9-37.6-134.6 59.6-4.4 27.1 1.6 54.8 15.6 78.5 8.8 14.9 22.2 34.3 42.7 58.1 0 0-270.6 128.1-245.9 435.6 3 36.5 15.5 71.8 38.1 100.6 23.5 30 61.4 59.1 120.4 61.2h509.7c59-2.1 96.9-31.2 120.4-61.2 22.6-28.9 35.2-64.1 38.1-100.6 25-307.4-245.6-435.6-245.6-435.6z m-304.5 119c7-6.6 18-6.3 24.7 0.7L480 535c6.6 7 6.3 18-0.7 24.7-3.4 3.2-7.7 4.8-12 4.8-4.6 0-9.2-1.8-12.7-5.5l-80.2-84.6c-6.6-7-6.3-18.1 0.7-24.7z m261.8 221.9c9.7 0 17.4 7.9 17.4 17.4 0 9.7-7.9 17.4-17.4 17.4H530.1v93.4c0 9.7-7.9 17.4-17.4 17.4-9.7 0-17.4-7.9-17.4-17.4v-93.4h-108c-9.7 0-17.4-7.9-17.4-17.4 0-9.7 7.9-17.4 17.4-17.4h108v-50.9h-108c-9.7 0-17.4-7.9-17.4-17.4 0-9.7 7.9-17.4 17.4-17.4h109.6c0.8-1.8 1.9-3.5 3.3-5l124.2-130.4c6.6-7 17.7-7.3 24.7-0.6 7 6.6 7.3 17.7 0.6 24.7L543.4 585.7h93.4c9.7 0 17.4 7.9 17.4 17.4 0 9.7-7.9 17.4-17.4 17.4H530.1v50.9l106.8 0.2z" fill="" p-id="2498"></path></svg>