<?xml version="1.0" standalone="no"?><!DOCTYPE svg PUBLIC "-//W3C//DTD SVG 1.1//EN" "http://www.w3.org/Graphics/SVG/1.1/DTD/svg11.dtd"><svg t="1542870091914" class="icon" style="" viewBox="0 0 1251 1024" version="1.1" xmlns="http://www.w3.org/2000/svg" p-id="1950" xmlns:xlink="http://www.w3.org/1999/xlink" width="244.3359375" height="200"><defs><style type="text/css"></style></defs><path d="M895.982509 426.666951c-35.610664 0-65.760268-12.51493-90.676355-37.317245a123.442717 123.442717 0 0 1-37.317245-90.676355c0-35.610664 12.51493-65.760268 37.317245-90.676355 24.916088-24.916088 55.065691-37.317245 90.676355-37.317246 35.610664 0 65.760268 12.51493 90.676355 37.317246 24.916088 24.916088 37.317245 55.065691 37.317245 90.676355 0 35.610664-12.51493 65.760268-37.317245 90.676355a123.442717 123.442717 0 0 1-90.676355 37.317245zM1119.999752 0.021617c21.275381 0 39.023827 7.05387 53.35911 21.389152a72.359049 72.359049 0 0 1 21.275381 53.245338v874.679822a72.359049 72.359049 0 0 1-21.389153 53.35911 72.359049 72.359049 0 0 1-53.245338 21.27538H74.661797a72.359049 72.359049 0 0 1-53.35911-21.389153A72.359049 72.359049 0 0 1 0.027307 949.449701V74.656107C0.027307 53.494499 7.081176 35.632281 21.416459 21.296997A72.359049 72.359049 0 0 1 74.548025 0.021617h1045.337955zM845.353929 527.92411l263.951247 282.723642V117.320641c0-21.275381-11.604753-31.969957-34.700487-31.969957h-954.547828C100.488061 85.350684 88.769536 96.04526 85.356374 117.320641v693.327111l335.968979-405.369954c14.221511-14.221511 29.353199-21.275381 45.395063-21.27538 19.455027 0 34.586715 6.257465 45.281292 18.658622l144.035465 157.3468 10.580804 10.694576c10.694576 7.05387 20.478976 10.580804 29.353199 10.580804 8.874223 0 19.568799-4.437111 31.969957-13.311334l48.011822-42.664534a60.98184 60.98184 0 0 1 34.700487-13.311334c14.221511 0 25.826264 5.347288 34.700487 15.928092z" p-id="1951"></path></svg>
