<?xml version="1.0" standalone="no"?><!DOCTYPE svg PUBLIC "-//W3C//DTD SVG 1.1//EN" "http://www.w3.org/Graphics/SVG/1.1/DTD/svg11.dtd"><svg t="1542614054739" class="icon" style="" viewBox="0 0 1024 1024" version="1.1" xmlns="http://www.w3.org/2000/svg" p-id="4346" xmlns:xlink="http://www.w3.org/1999/xlink" width="240" height="240"><defs><style type="text/css"></style></defs><path d="M256 232V152c0-17.674 14.326-32 32-32h704c17.674 0 32 14.326 32 32v80c0 17.674-14.326 32-32 32H288c-17.674 0-32-14.326-32-32z m32 352h704c17.674 0 32-14.326 32-32v-80c0-17.674-14.326-32-32-32H288c-17.674 0-32 14.326-32 32v80c0 17.674 14.326 32 32 32z m0 320h704c17.674 0 32-14.326 32-32v-80c0-17.674-14.326-32-32-32H288c-17.674 0-32 14.326-32 32v80c0 17.674 14.326 32 32 32zM32 288h128c17.674 0 32-14.326 32-32V128c0-17.674-14.326-32-32-32H32C14.326 96 0 110.326 0 128v128c0 17.674 14.326 32 32 32z m0 320h128c17.674 0 32-14.326 32-32v-128c0-17.674-14.326-32-32-32H32c-17.674 0-32 14.326-32 32v128c0 17.674 14.326 32 32 32z m0 320h128c17.674 0 32-14.326 32-32v-128c0-17.674-14.326-32-32-32H32c-17.674 0-32 14.326-32 32v128c0 17.674 14.326 32 32 32z" fill="" p-id="4347"></path></svg>