<svg t="1562568353151" class="icon" viewBox="0 0 1024 1024" version="1.1" xmlns="http://www.w3.org/2000/svg" p-id="3065" width="500" height="500"><path d="M638.306462 113.073231c0-0.630154 0.157538-1.220923 0.472615-1.772308 0.669538-1.299692 2.284308-2.284308 3.780923-2.284308l5.750154 0c0.630154-0.551385 1.417846-1.024 2.56-1.142154 0.590769-0.118154 1.772308 0.118154 2.284308 0.275692C653.390769 108.228923 653.587692 108.307692 653.784615 108.425846l1.890462-0.984615c0.433231-0.275692 0.866462-0.512 1.378462-0.630154l5.198769-1.063385c0.315077-0.039385 1.142154-0.039385 1.457231-0.039385 0.393846 0 0.748308 0.078769 1.063385 0.157538 5.277538 1.614769 5.592615 1.772308 6.813538 2.875077 0.275692 0.236308 0.551385 0.512 0.748308 0.748308 2.796308 4.686769 3.584 5.907692 3.032615 7.561846 4.174769 2.048 4.292923 2.166154 4.804923 2.481231 1.299692 1.063385 2.166154 3.387077 1.614769 4.962462-0.472615 1.417846-2.008615 2.56-3.465846 2.796308-0.196923 0-0.354462 0-0.551385 0l-3.544615 0c0.472615 1.142154 0.236308 1.851077-0.393846 2.993231-0.551385 1.063385-1.575385 1.811692-2.756923 2.008615-0.275692 0.078769-0.708923 0.078769-1.063385 0.078769-0.078769 0-0.196923 0-0.275692 0l-0.433231 0c-11.224615-3.702154-11.224615-3.702154-12.445538-5.238154l-2.323692-3.623385c-0.827077 0.157538-2.56-0.078769-3.465846-0.590769l-5.12-2.441846c-0.157538-0.078769-0.748308-0.433231-0.866462-0.512C639.094154 116.145231 638.306462 115.672615 638.306462 113.073231zM738.461538 656.777846c5.710769 0 10.909538-3.820308 12.327385-9.019077 0.866462-2.993231 0.354462-6.301538-1.457231-8.743385-1.890462-2.56-5.041231-4.017231-8.822154-4.017231-0.157538 0-0.866462 0-1.063385 0.039385-5.632 0.787692-10.082462 4.450462-11.224615 9.452308-0.905846 4.096 0.590769 8.073846 3.977846 10.358154C734.011077 656.147692 736.137846 656.777846 738.461538 656.777846zM588.524308 196.844308l0.354462 0c1.339077 0 1.339077 0 22.134154-9.058462 2.363077-1.614769 2.323692-3.741538 1.969231-5.198769-0.275692-1.102769-0.669538-2.205538-1.181538-3.820308-0.236308-0.551385-0.512-1.024-0.905846-1.457231-0.157538-0.118154-0.827077-0.827077-0.945231-0.905846l-8.349538-6.537846c-0.787692-0.551385-2.323692-1.063385-4.253538-1.142154l-15.438769 2.756923-3.465846-2.166154c-0.551385-0.275692-1.851077-0.590769-2.402462-0.590769-1.220923 0-2.599385 0.315077-10.752 1.969231-1.732923 0.551385-2.953846 1.772308-3.347692 3.308308-0.393846 1.378462 0.275692 3.623385 1.339077 4.608 1.417846 1.299692 3.229538 2.481231 4.923077 3.465846L566.862769 185.107692c-0.354462 0.984615-0.315077 2.638769 0.157538 3.584 1.102769 2.244923 1.102769 2.244923 20.401231 7.955692C587.776 196.765538 588.169846 196.844308 588.524308 196.844308zM1018.013538 512c0 279.000615-227.012923 506.013538-506.013538 506.013538S5.986462 791.000615 5.986462 512 232.999385 5.986462 512 5.986462 1018.013538 232.999385 1018.013538 512zM776.704 382.070154c0.039385 0.827077-0.196923 1.654154-0.630154 2.363077l5.828923 2.126769 18.313846 4.371692c0.157538 0.078769 1.220923 0.472615 1.417846 0.551385l16.974769 9.767385 1.260308-6.971077c0.196923-1.102769 0.827077-2.048 1.811692-2.599385l3.820308-2.363077c0.196923-0.118154 0.945231-0.472615 1.181538-0.551385 0.433231-0.157538 0.905846-0.236308 1.378462-0.236308 3.859692 0 7.443692 0 12.484923 0.787692 1.102769 0.196923 2.087385 0.827077 2.678154 1.811692l1.181538 1.890462c1.851077 0 3.899077 0 6.222769-0.078769 0.472615-0.118154 0.984615 0.078769 1.457231 0.236308l14.769231 5.710769 2.756923-4.135385c0.905846-1.378462 2.678154-2.008615 4.332308-1.536l10.200615 3.150769 0.708923-15.675077c-0.433231-1.614769-0.827077-3.229538-1.299692-4.844308l-2.008615 2.520615c-0.393846 0.472615-0.905846 0.866462-1.536 1.142154-0.827077 0.315077-2.244923 0.551385-3.032615 0.354462l-0.433231-0.118154c-0.315077-0.078769-0.669538-0.236308-0.905846-0.393846-5.907692-3.426462-5.907692-3.426462-6.301538-3.780923-1.575385-1.457231-2.323692-3.544615-2.008615-5.395692 0.157538-0.630154 0.551385-1.339077 1.063385-2.008615l-0.551385-0.275692C867.446154 368.246154 867.012923 368.403692 866.461538 368.521846l-7.798154 2.008615c-1.339077 0.354462-2.638769-0.078769-3.623385-0.984615l-1.339077-1.260308c0.472615 6.695385 0.630154 10.121846-4.017231 10.594462-0.118154 0-0.236308 0-0.393846 0l-0.157538 0c-16.108308-3.229538-16.108308-3.229538-17.526154-5.474462-2.402462-4.411077-2.402462-4.411077-2.599385-5.316923-0.039385-0.551385-0.078769-1.063385 0-1.536l-3.584 0c-0.827077 0-1.536-0.236308-2.205538-0.708923l-0.905846-0.551385c-0.630154-0.393846-1.378462-1.063385-1.693538-1.693538l-1.496615-2.678154c-1.024-1.851077-2.087385-3.859692-2.993231-5.474462-0.078769-0.118154-0.157538-0.315077-0.196923-0.433231-0.472615-0.078769-0.905846-0.157538-1.378462-0.275692-0.905846-0.196923-1.772308-0.748308-2.323692-1.496615l-4.765538-6.459077c-0.787692-0.118154-1.457231-0.433231-2.087385-0.866462-0.669538-0.512-0.984615-0.787692-1.339077-1.063385S803.446154 344.182154 803.249231 343.788308l-1.102769-2.087385c-0.669538 0.551385-1.496615 0.827077-2.441846 0.827077L799.113846 342.528l0.945231 1.969231c0.551385 1.063385 0.551385 2.363077 0 3.426462l-3.702154 7.601231c-0.472615 0.984615-1.339077 1.772308-2.402462 2.048l0 6.656c-0.118154 2.244923-1.299692 3.938462-3.072 4.608 0.472615 0.630154 0.708923 1.378462 0.827077 2.363077 0.078769 0.590769-0.039385 1.536-0.236308 2.205538-0.078769 0.433231-0.315077 0.827077-0.551385 1.220923-4.017231 6.104615-4.371692 6.734769-6.813538 7.089231C783.753846 381.755077 783.320615 381.755077 782.848 381.636923l0.787692-3.820308L782.769231 381.636923c-0.630154-0.118154-2.717538-0.590769-4.096-2.993231-0.512-1.181538-0.905846-2.048-1.299692-2.835692-0.748308-1.496615-1.417846-3.032615-1.890462-4.411077C775.955692 374.626462 776.467692 378.171077 776.704 382.070154zM708.608 348.711385c0.472615 1.457231 0.078769 2.993231-0.984615 4.096-1.220923 1.063385-2.323692 2.323692-3.387077 3.584l-1.693538 1.890462L695.099077 364.701538c-0.275692 0.236308-0.590769 0.472615-0.945231 0.630154l-0.827077 0.393846c-0.393846 0.157538-0.708923 0.275692-1.063385 0.315077l-8.625231 1.299692c-0.236308 0.315077-0.393846 0.630154-0.630154 0.905846l8.625231 0 23.433846-8.546462c0.275692-0.118154 1.024-0.275692 1.299692-0.315077l35.958154-2.166154 5.907692-2.008615c0.393846-0.157538 1.457231-0.354462 1.929846-0.354462 0.984615 0 1.929846 0.236308 2.796308 0.748308l6.498462 3.702154 3.229538 2.520615c0.708923 0.590769 1.220923 1.378462 1.378462 2.284308 0.315077 1.614769 0.630154 3.268923 0.984615 5.041231 0.039385-2.756923 1.772308-4.765538 4.292923-5.159385 0.078769 0 0.157538 0 0.236308 0-0.393846-0.236308-0.748308-0.472615-1.142154-0.708923-3.899077-2.481231-8.310154-5.238154-11.067077-8.704-0.393846-0.472615-0.708923-1.063385-0.827077-1.732923-0.354462-1.732923-0.551385-2.638769-0.748308-3.938462-0.196923-1.732923 0.748308-3.347692 2.323692-4.056615 0.748308-0.354462 2.717538-1.063385 3.544615-0.945231l9.491692 1.575385-1.339077-3.229538-1.417846-1.024-14.572308-8.073846c-0.315077-0.196923-1.063385-0.708923-1.299692-0.945231L755.554462 325.316923c-0.078769 0.157538-0.078769 0.315077-0.118154 0.472615-0.393846 1.378462-0.748308 2.520615-1.024 3.544615 1.693538 0.630154 2.835692 1.772308 3.387077 3.387077 2.756923 8.585846 2.756923 8.585846 2.756923 9.373538 0 2.126769-1.339077 3.977846-3.387077 4.608l-5.592615 2.205538c-0.118154 0.078769-0.827077 0.236308-0.945231 0.275692-0.669538 0.157538-1.299692 0.157538-1.969231 0-1.102769-0.275692-3.780923-0.905846-4.529231-4.174769-0.590769-2.638769-1.181538-5.159385-1.732923-7.640615l-0.551385-2.284308c-0.157538-1.220923-0.078769-2.126769 0.118154-2.835692-0.433231-0.433231-0.827077-0.945231-1.142154-1.654154-0.157538-0.315077-0.275692-0.630154-0.354462-0.945231-0.315077-1.339077-0.630154-2.796308-0.984615-4.174769-0.393846-2.441846-0.039385-3.426462 0.078769-3.780923 0.118154-0.748308 0.236308-0.708923 0.708923-1.260308 0.393846-0.433231 0.708923-0.827077 0.984615-1.181538l-1.102769 0-5.513846 3.623385c-0.630154 0.433231-1.457231 0.630154-2.244923 0.630154l-11.067077-1.575385-0.551385 0.945231-0.827077 7.128615c-0.157538 1.260308-0.945231 2.441846-2.166154 2.993231l-4.371692 2.166154c-0.078769 0.039385-0.984615 0.433231-1.063385 0.433231-0.433231 0.157538-0.905846 0.236308-1.378462 0.236308L709.710769 335.832615l-3.505231 1.496615-0.708923 2.048L708.608 348.711385zM745.865846 232.605538c0.078769 1.772308-1.063385 3.387077-2.756923 3.938462l-1.536 0.472615c-0.512 0.157538-1.024 0.354462-1.575385 0.551385l1.969231 0.315077c0.315077-0.236308 0.630154-0.433231 0.984615-0.590769l9.688615-3.741538c0.236308-0.118154 0.708923-0.236308 0.905846-0.275692 0.787692-0.157538 1.693538-0.393846 2.520615-0.669538 3.150769-0.787692 7.168-1.575385 10.121846-0.787692l-2.875077-8.073846c-0.315077-0.827077-0.275692-1.693538 0-2.481231-0.472615-0.275692-0.905846-0.590769-1.299692-0.866462-0.354462-0.315077-0.708923-0.630154-0.866462-1.063385-1.024-1.693538-2.008615-3.229538-2.717538-5.750154-0.827077 0.236308-1.693538 0.157538-2.481231-0.157538l-6.931692-2.993231c0 0.393846 0 0.708923-0.078769 1.063385l-2.048 9.137231-1.457231 3.347692L745.865846 232.605538zM926.523077 503.335385l1.063385 4.568615c0.039385 0.078769 0.315077 0.827077 0.354462 0.905846l0.157538 1.024 1.851077 15.202462c0.078769 0.039385 0.196923 0.078769 0.354462 0.157538 0.827077 0.315077 1.575385 0.905846 2.008615 1.772308l0.236308-9.688615C930.776615 513.024 928.689231 508.219077 926.523077 503.335385zM839.246769 357.769846c0 1.063385-0.393846 2.126769-1.181538 2.835692l-1.732923 1.614769 2.008615 0.157538c2.166154 0.078769 4.450462 0.236308 6.616615 0.393846L840.861538 354.343385c-0.315077-0.196923-1.220923-1.181538-2.166154-2.205538C838.222769 351.625846 837.710769 351.074462 837.238154 350.523077l0.827077 1.063385c0.354462 0.472615 0.590769 0.984615 0.669538 1.536C839.010462 354.540308 839.246769 355.682462 839.246769 357.769846zM847.123692 322.481231c2.284308-0.827077 4.804923-1.772308 7.364923-2.717538 2.993231-1.142154 5.986462-2.284308 8.625231-3.190154 0.393846-0.157538 1.142154-0.354462 1.614769-0.354462 1.536 0 1.851077 0.196923 7.325538 3.977846l5.750154-0.827077L872.369231 315.155692l-12.760615-8.861538c-0.433231-0.315077-0.787692-0.630154-1.063385-0.905846-0.630154 0.905846-1.339077 1.929846-2.166154 3.072-0.472615 0.590769-0.984615 0.984615-1.693538 1.299692-0.630154 0.393846-1.142154 0.472615-1.929846 0.472615-2.008615 0-2.008615 0-10.121846-7.364923-0.433231-0.433231-0.827077-0.787692-1.024-1.142154l-0.393846 5.277538c0 0.827077-0.039385 1.772308-0.275692 2.481231-0.196923 0.827077-0.590769 1.536-1.102769 2.166154l0.315077 2.402462c-0.039385 0.984615-0.236308 1.851077-0.551385 2.481231 0.078769 0.236308 0.157538 0.433231 0.275692 0.630154l4.726154 5.238154L847.123692 322.481231zM882.294154 745.078154 882.215385 745.078154c-0.393846 0-0.748308 0-1.024-0.118154-0.866462-0.196923-1.969231-0.354462-2.875077-0.866462l-8.546462 13.548308c0.078769-0.078769 0.118154-0.118154 0.196923-0.157538l8.073846-4.923077c2.481231-3.072 4.608-5.710769 6.419692-7.995077-0.512 0.393846-0.905846 0.433231-1.575385 0.551385C882.688 745.078154 882.491077 745.078154 882.294154 745.078154zM936.014769 635.904c-0.393846 0.551385-0.787692 1.063385-1.378462 1.339077l-3.544615 1.614769-14.296615 21.740308c-0.393846 0.630154-1.063385 1.102769-1.732923 1.417846l-3.032615 4.292923-4.962462 7.955692c-0.630154 2.087385-1.575385 4.923077-3.268923 8.940308-0.157538 0.433231-0.472615 0.827077-0.827077 1.181538l-2.008615 2.048-5.12 8.467692-1.024 4.962462-5.947077 16.423385 0 2.008615c-0.039385 0.590769-0.196923 1.142154-0.433231 1.654154l-1.260308 2.56c-0.630154 1.378462-1.260308 2.756923-1.929846 4.056615-0.393846 0.748308-0.748308 1.496615-1.063385 2.244923 0.393846 0 0.905846 0 0.905846 0l1.142154 0c1.142154 0 2.481231 0.039385 3.702154 0.393846 0.393846 0.118154 0.708923 0.275692 0.984615 0.433231 1.024 0.630154 2.441846 2.323692 1.772308 4.844308 1.142154-1.378462 1.575385-1.851077 2.166154-2.520615C912.147692 701.912615 926.089846 669.814154 936.014769 635.904zM951.965538 552.329846c0.196923-1.969231 0.157538-3.977846 0.315077-5.907692l-7.640615 6.065231c-0.236308 0.157538-0.669538 0.433231-0.866462 0.551385-0.315077 0.118154-0.590769 0.275692-0.945231 0.354462 0.078769 0.315077 0.118154 0.787692 0.118154 0.827077l-0.236308 2.599385 0.354462 0.315077c0.315077 0.315077 0.551385 0.708923 0.708923 1.063385 2.008615-1.378462 4.017231-2.835692 5.986462-4.253538L951.965538 552.329846zM324.214154 180.381538l0.157538-1.181538L317.873231 179.2C317.676308 180.066462 317.243077 180.854154 316.494769 181.366154 316.219077 181.602462 315.864615 181.917538 315.628308 182.232615c-0.393846 0.393846-0.866462 0.669538-1.378462 0.827077L303.143385 187.392c-4.923077 1.969231-9.924923 3.938462-14.178462 5.592615L276.322462 202.161231 276.204308 204.012308C276.125538 205.075692 275.613538 206.060308 274.786462 206.729846l-0.393846 0.315077C275.534769 207.478154 276.401231 208.384 276.676923 209.526154L279.630769 219.529846l5.238154 8.152615c0.039385 0.078769 0.078769 0.157538 0.118154 0.236308 0.354462-0.590769 0.748308-1.142154 1.063385-1.772308 0.512-0.827077 1.339077-1.457231 2.363077-1.693538l18.510769-6.419692 9.097846-14.651077c0.472615-0.748308 1.142154-1.299692 2.008615-1.614769l8.073846-2.953846c1.457231-1.614769 2.953846-3.584 4.450462-5.632C332.839385 190.188308 335.241846 186.998154 337.959385 184.32L337.329231 184.123077 334.611692 185.068308C334.217846 185.225846 333.154462 185.501538 332.681846 185.501538c-1.417846 0-3.229538 0-5.750154-0.787692C325.080615 184.201846 323.938462 182.311385 324.214154 180.381538zM412.435692 942.276923c-0.630154-0.433231-1.260308-0.905846-1.575385-1.614769l-2.048-0.827077c-0.157538-0.078769-0.827077-0.433231-0.984615-0.551385l-1.536-0.905846c-0.236308 0-0.472615 0.078769-0.669538 0.078769l-0.196923 0c-0.630154 0-2.087385-0.433231-2.599385-0.787692l-4.017231-2.087385c-1.063385-0.236308-1.732923-0.630154-2.441846-1.063385-0.315077-0.196923-0.866462-0.630154-1.378462-1.024-0.827077-0.669538-1.693538-1.969231-2.008615-3.150769l-0.078769-0.039385-1.575385-0.590769c-2.481231-0.827077-5.238154-1.811692-7.404308-3.268923-0.433231-0.354462-0.787692-0.708923-1.063385-1.102769l-0.945231-1.536-5.277538-2.284308c-0.708923-0.315077-1.220923-0.787692-1.693538-1.378462l-2.244923-3.387077c-0.078769-0.039385-0.118154-0.078769-0.157538-0.157538-1.181538 0-2.402462-0.472615-3.505231-1.260308-6.301538-4.411077-6.931692-4.883692-7.168-6.340923-1.654154-0.393846-3.505231-0.866462-5.001846-1.772308-0.315077-0.157538-0.590769-0.354462-0.827077-0.630154L354.461538 904.979692c-1.063385-1.024-2.205538-2.126769-3.308308-3.268923L343.433846 896.236308c-0.196923-0.157538-0.669538-0.551385-0.827077-0.748308-28.672-28.593231-34.697846-36.194462-57.147077-64.590769-10.082462-13.981538-22.370462-32.649846-30.838154-45.528615L252.455385 783.241846c-6.931692-4.017231-9.058462-5.238154-11.067077-6.537846-0.196923-0.039385-0.433231-0.157538-0.708923-0.236308l-21.385846-11.421538c-3.072-2.205538-19.968-22.567385-31.704615-37.888 0 0-0.315077-0.393846-0.669538-0.787692-0.157538-0.157538-0.827077-0.905846-0.905846-1.142154l-7.640615-11.460923-15.478154-13.233231c-0.236308-0.275692-0.472615-0.630154-0.630154-0.905846l-7.837538-17.250462c-0.157538-0.275692-0.433231-1.496615-0.472615-1.811692-0.196923-0.866462-0.039385-1.811692 0.393846-2.56l0.433231-0.827077c-0.118154-0.118154-0.196923-0.196923-0.275692-0.275692-0.905846-0.827077-1.299692-1.142154-1.614769-1.417846-0.472615-0.472615-0.787692-1.024-0.945231-1.614769L151.630769 672.768c-1.063385-3.544615-2.166154-7.246769-3.150769-10.830769 0-0.157538-0.236308-1.063385-0.236308-1.142154-0.078769-0.472615-0.078769-0.984615 0-1.457231l3.150769-15.675077 2.166154-7.246769 1.378462-7.168c-2.205538-10.752-4.135385-21.582769-5.710769-32.295385l-2.008615-3.150769c-0.393846 0.787692-1.024 1.457231-1.890462 1.772308l-5.395692 2.363077c-1.732923 0.708923-3.741538 0.118154-4.726154-1.339077l-5.041231-7.168c-0.354462-0.078769-0.748308-0.236308-1.181538-0.433231-0.551385-0.236308-1.102769-0.590769-1.929846-1.063385-0.827077-0.512-1.457231-1.299692-1.732923-2.284308l-0.039385-0.157538-3.780923-4.371692-1.063385 0.472615c-1.536 0.708923-3.465846 0.236308-4.529231-1.063385L113.703385 577.772308c-0.157538-0.157538-0.708923-0.984615-0.787692-1.181538l-9.531077-28.632615c-0.078769-0.196923-0.157538-0.433231-0.157538-0.590769l-6.537846-3.859692c-0.236308-0.157538-1.693538-1.260308-1.929846-1.417846l-4.450462-4.726154c-0.275692-0.236308-0.512-0.551385-0.669538-0.827077l-2.441846-3.859692C86.921846 532.401231 86.646154 532.086154 86.449231 531.692308c0-0.078769-0.433231-0.905846-0.433231-0.984615l-3.899077-9.649231-5.12 2.638769c-1.496615 0.827077-3.426462 0.551385-4.608-0.708923l-1.969231-2.048C74.594462 726.409846 219.411692 897.614769 412.435692 942.276923zM123.904 476.711385l0.787692-1.772308c-0.472615-0.236308-0.905846-0.472615-1.260308-0.787692l-10.870154 28.120615-0.039385 8.034462c0 0 0 0.078769 0 0.157538l9.097846 1.851077c0.472615 0.078769 0.905846 0.315077 1.299692 0.551385 0.354462 0.236308 1.457231 0.984615 1.693538 1.299692l1.063385 1.299692c2.441846 2.914462 5.435077 6.459077 7.325538 9.649231 0.315077 0.590769 0.551385 1.260308 0.551385 1.969231 0 0.787692-0.078769 1.772308-0.157538 2.56l-1.063385 33.28 3.741538 6.774154 10.870154-1.811692c0.196923 0 0.393846-0.039385 0.630154-0.039385 0.157538 0 0.315077 0.039385 0.472615 0.039385l1.063385 0.118154c0.630154 0.078769 1.220923 0.315077 1.693538 0.669538l5.198769 3.584 5.632-12.996923c0.196923-0.433231 0.433231-0.787692 0.748308-1.102769 0.236308-0.315077 1.142154-1.142154 1.496615-1.339077l17.762462-9.885538c1.181538-0.669538 2.599385-0.669538 3.820308 0 0.905846 0.551385 2.087385 1.102769 3.150769 1.732923l2.166154 1.142154 2.756923-2.678154c1.220923-1.142154 2.993231-1.457231 4.450462-0.708923l1.063385 0.551385c0.551385 0.236308 0.945231 0.590769 1.299692 0.984615l9.137231 11.027692 14.966154 3.820308 2.599385-1.378462c0.354462-0.157538 0.669538-0.315077 1.024-0.393846l1.142154-0.236308c0.551385-0.078769 0.984615-0.078769 1.536 0l14.454154 3.111385c0.393846 0.157538 0.748308 0.393846 0.984615 0.669538l7.719385 6.892308L253.794462 568.713846c-0.039385-0.118154-0.039385-0.196923-0.039385-0.275692-2.835692-0.393846-4.489846-2.599385-4.765538-4.765538L248.910769 562.412308c-0.078769-1.654154-0.157538-3.308308-0.315077-4.962462 0.078769-1.417846 0.512-2.599385 1.102769-3.544615C249.698462 553.826462 249.698462 553.747692 249.698462 553.629538c-0.078769-1.220923-0.157538-2.481231-0.196923-3.702154-1.142154-0.905846-1.890462-2.284308-2.048-3.780923-0.118154-2.284308-0.236308-4.371692-0.236308-6.459077 0.039385-1.142154 0.354462-2.166154 0.827077-2.914462-0.039385-0.078769-0.039385-0.157538-0.039385-0.157538L247.965538 534.055385c-1.260308-0.512-3.190154-1.614769-3.584-4.489846l-0.078769-2.638769c-0.039385-2.520615-0.078769-5.041231-0.078769-7.561846 0.078769-1.063385 0.315077-2.048 0.827077-2.835692C243.081846 515.623385 241.939692 514.048 241.703385 512l0-0.984615-2.402462 0.787692c-0.236308 0.078769-1.614769 0.315077-1.851077 0.315077-1.220923 0-2.402462-0.472615-3.426462-1.220923-0.945231-0.905846-1.654154-1.536-2.441846-2.205538-0.157538-0.196923-0.393846-0.393846-0.630154-0.590769-0.827077 0.787692-2.048 1.339077-3.465846 1.417846-0.078769 0-0.157538 0-0.236308 0L215.276308 509.518769c-2.048-0.118154-3.623385-1.024-4.489846-2.481231-0.157538 0.039385-0.315077 0.078769-0.472615 0.078769L191.527385 507.116308c-0.236308 0.039385-0.236308 0.078769-0.472615 0.078769L190.936615 507.195077c-0.157538 0-0.905846-0.078769-1.063385-0.078769-0.275692 0-0.984615-0.157538-1.260308-0.196923-11.185231-1.851077-15.438769-2.481231-17.211077-3.780923 0 1.063385 0 1.890462 0 2.638769-0.157538 2.166154-0.905846 3.544615-2.323692 4.529231-0.275692 0.236308-0.669538 0.472615-0.945231 0.590769l-6.616615 2.56c-0.275692 0.118154-1.102769 0.315077-1.417846 0.393846-0.472615 0.039385-0.905846 0.039385-1.339077-0.039385l-0.590769-0.118154c-0.472615-0.078769-0.905846-0.236308-1.299692-0.512l-2.520615-1.457231c-2.323692-1.260308-4.923077-2.756923-6.852923-4.411077-0.827077-0.551385-1.614769-1.772308-1.851077-3.229538-0.275692-1.536 0.078769-3.072 0.984615-4.371692 3.623385-4.371692 4.017231-4.844308 5.828923-5.238154 0.393846 0 1.063385 0.078769 1.732923 0.236308l0.039385-0.196923 4.135385 0.787692c3.229538 0.551385 6.656 1.142154 9.373538 1.969231 0.787692 0.196923 1.536 0.669538 2.205538 1.339077 0-1.339077 0.157538-2.796308 1.102769-4.056615 0-0.196923-0.039385-0.393846-0.039385-0.630154-0.039385-0.236308-0.039385-0.472615 0-0.827077l-12.091077 1.772308c-0.433231 0.039385-1.181538 0-1.575385-0.078769-0.354462-0.039385-0.708923-0.157538-0.984615-0.315077-1.890462-0.866462-2.993231-2.441846-3.229538-4.489846l0.078769-3.387077c0.078769-0.787692 0.078769-1.536 0.118154-2.363077l-1.969231-1.811692c0.630154 1.851077 0.827077 3.938462 0.630154 5.986462-0.787692 6.144-5.316923 10.830769-10.673231 10.830769-1.851077 0-3.662769-0.630154-5.238154-1.693538-3.308308-2.402462-5.041231-6.852923-4.568615-11.382154-0.315077 0.157538-0.984615 0.393846-1.260308 0.512-1.024 0.354462-2.205538 0.275692-3.150769-0.275692-1.496615-0.827077-2.284308-1.536-2.875077-3.387077C123.549538 478.680615 123.470769 478.208 123.904 476.711385zM827.943385 820.499692c-0.866462-0.827077-1.654154-1.811692-1.575385-3.032615 0.078769-2.363077 0.157538-4.214154 1.142154-5.907692 12.760615-18.707692 12.760615-18.707692 13.548308-19.574154l10.358154-9.019077 5.356308-9.176615c0.196923-0.315077 0.827077-1.220923 1.063385-1.457231 0.905846-1.181538 1.772308-2.323692 2.520615-3.268923l-0.039385 0.039385c-0.669538 0.393846-1.339077 0.551385-2.048 0.551385l-0.787692 0c-3.859692 2.953846-10.082462 7.68-15.556923 11.500308-0.157538 0.157538-0.236308 0.275692-0.393846 0.433231l-2.520615 2.087385c-1.299692 1.496615-2.993231 3.347692-5.12 4.292923-0.512 0.236308-1.024 0.393846-1.614769 0.393846l-0.787692 0-1.260308 1.929846-7.325538 13.863385c-0.157538 0.393846-0.433231 0.708923-0.708923 0.945231l-12.288 12.484923c-1.417846 1.417846-3.190154 3.072-5.356308 4.017231-0.472615 0.157538-0.945231 0.315077-1.457231 0.315077L801.083077 821.917538l-3.032615 2.008615-4.332308 4.253538-10.358154 11.067077c-1.496615 1.260308-6.892308 5.001846-9.294769 6.656l-0.590769 0.354462c-0.118154 0.118154-0.236308 0.275692-0.393846 0.354462l-20.519385 14.257231c-0.196923 0.118154-0.708923 0.354462-0.905846 0.433231l-12.996923 5.986462c-7.246769 1.575385-15.556923 3.229538-21.976615 4.450462l-1.024 0.630154c-1.536 0.827077-3.229538 1.772308-4.686769 2.323692-0.472615 0.157538-0.866462 0.236308-1.339077 0.236308-1.732923 0-3.662769 0-6.025846-0.905846-1.063385-0.393846-1.890462-1.220923-2.284308-2.284308-0.393846-1.063385-0.315077-2.244923 0.236308-3.190154l1.339077-2.56c1.614769-3.190154 3.465846-6.813538 5.750154-9.412923l3.859692-3.702154c2.835692-5.395692 3.505231-6.577231 5.080615-9.846154l3.426462-9.097846 0.590769-3.032615c0-0.236308 0.157538-0.787692 0.236308-0.945231 4.371692-12.288 9.924923-30.365538 14.217846-46.355692l-2.481231-10.003692c-0.078769-0.393846-0.157538-0.827077-0.078769-1.220923 0-0.393846 0.157538-1.536 0.315077-1.929846 1.929846-4.608 3.859692-9.137231 5.907692-14.296615 0.315077-0.630154 0.708923-1.142154 1.220923-1.575385 0.315077-0.236308 1.457231-1.024 1.772308-1.142154l2.402462-0.945231 4.529231-10.752 8.152615-7.325538 5.041231-27.017846 2.126769-7.168-0.630154-2.914462c-0.157538-0.827077-0.393846-1.457231-0.669538-2.126769-0.196923-0.590769-0.433231-1.181538-0.630154-1.811692-0.275692-0.472615-0.748308-1.496615-0.787692-2.087385 0-0.039385-0.118154-0.905846-0.118154-0.984615l-0.393846-4.608-1.851077-5.041231-9.058462-22.882462c-0.433231-0.984615-0.393846-2.166154 0.078769-3.150769l10.633846-22.449231-0.866462-2.244923-5.513846-7.640615-13.705846 1.063385c-1.693538 0.275692-3.387077-0.905846-4.017231-2.56l-4.135385-11.657846-5.080615 1.142154-7.758769 0.118154-7.325538 4.096c-0.393846 0.236308-0.787692 0.354462-1.181538 0.433231l-2.363077 0.433231c-0.393846 0.078769-0.827077 0.078769-1.299692 0l-17.447385 1.890462c-0.157538 0.039385-1.142154 0.118154-1.299692 0.118154l-19.928615 0-12.839385 2.166154c-2.244923 1.024-5.080615 2.244923-7.837538 2.244923-0.236308 0-1.102769-0.078769-1.299692-0.118154-0.748308-0.118154-1.417846-0.433231-2.008615-0.866462l-5.632-4.883692-17.250462-10.121846c-0.433231-0.157538-0.984615-0.315077-1.299692-0.590769l-0.984615-0.827077c-0.078769-0.078769-0.708923-0.630154-0.787692-0.708923l-2.048-1.654154c-0.157538-0.118154-0.551385-0.590769-0.708923-0.708923l-5.710769-7.168-7.364923-5.671385c-0.393846-0.275692-0.787692-0.630154-1.063385-1.024l-12.169846-17.368615-5.632-6.774154-3.702154-5.750154c-0.433231-0.669538-0.630154-1.339077-0.630154-2.087385l-0.118154-1.772308c-0.039385-0.472615 0.039385-0.905846 0.118154-1.299692 0.078769-2.402462 0.118154-4.765538 0.157538-7.089231l-4.923077-4.962462c-1.181538-1.181538-1.457231-3.032615-0.708923-4.489846l11.776-23.315692-2.678154-19.062154-2.441846-3.899077c-0.118154-0.118154-0.551385-1.024-0.590769-1.220923-0.275692-0.512-0.393846-1.063385-0.393846-1.614769 0-1.260308 0-2.441846-0.157538-4.726154-0.078769-0.630154 0.078769-1.220923 0.315077-1.772308l9.216-20.204308c2.008615-3.505231 3.899077-6.656 5.828923-9.964308 4.608-7.601231 9.846154-16.226462 13.036308-23.394462 0.433231-0.905846 1.181538-1.614769 2.126769-2.008615l7.758769-3.150769 16.856615-12.091077 3.820308-16.305231c0.078769-0.354462 0.196923-0.708923 0.433231-0.984615 0.157538-0.393846 0.866462-1.536 1.260308-1.851077l23.709538-20.401231-3.111385-3.465846-6.931692 1.378462c-2.678154 0.472615-5.632-0.905846-6.616615-3.308308l-3.702154-10.082462-2.323692-2.166154c-0.748308-0.630154-1.181538-1.536-1.299692-2.481231-0.118154-1.220923-0.157538-1.693538-0.236308-2.205538-0.039385-0.275692-0.039385-0.945231-0.039385-1.260308l2.993231-14.532923c-0.708923-5.12-1.654154-11.736615-2.441846-16.699077-0.157538-1.063385 0.196923-2.323692 0.945231-3.150769C642.756923 311.532308 643.111385 311.138462 643.308308 310.902154c0.590769-0.787692 1.378462-1.339077 2.363077-1.496615l2.638769-0.551385c0.315077-0.630154 0.590769-1.142154 0.827077-1.614769 0.472615-1.142154 1.417846-1.969231 2.56-2.284308l1.732923-0.512c0.512-0.157538 1.024-0.157538 1.575385-0.039385 4.923077 0.866462 5.710769 1.024 6.931692 1.260308 0.078769 0 0.236308 0 0.393846 0.039385 14.375385 1.890462 14.808615 1.969231 18.392615 2.599385l-0.984615-4.411077c0-0.315077-0.118154-1.614769-0.078769-1.929846L680.172308 298.929231l-7.522462-6.419692c-1.929846 0-3.938462-0.039385-6.301538-0.118154-1.063385-0.039385-2.087385-0.472615-2.756923-1.260308-0.433231-0.433231-1.772308-2.166154-2.008615-2.717538-0.393846-1.496615-0.787692-3.229538-1.063385-4.726154-0.039385-0.275692-0.078769-1.024-0.078769-1.260308 0-0.433231 0.078769-0.827077 0.157538-1.181538l1.496615-4.647385c-0.118154 0-0.275692 0.039385-0.354462 0.039385l-3.465846 0c-2.205538-0.196923-3.780923-1.024-4.726154-2.363077-0.866462-1.220923-1.181538-2.678154-0.866462-4.135385l1.969231-5.159385c0.118154-0.236308 0.551385-0.945231 0.708923-1.142154 0.275692-0.472615 0.630154-0.827077 0.945231-1.063385l1.378462-0.984615c-0.078769-0.157538-0.157538-0.236308-0.236308-0.393846-0.157538-0.630154-0.315077-1.142154-0.433231-1.693538-0.275692 0.275692-0.669538 0.472615-1.063385 0.708923l-8.979692 4.135385c-0.236308 0.078769-0.827077 0.236308-1.024 0.315077l-10.476308 2.166154c-2.56 0.472615-4.608-0.827077-5.435077-1.693538-0.984615-1.063385-1.496615-2.481231-1.378462-3.938462l1.378462-7.089231c0.118154-0.433231 0.236308-0.787692 0.472615-1.142154 0.078769-0.157538 0.236308-0.472615 0.472615-0.708923-1.536-1.102769-2.008615-1.693538-2.481231-2.914462L627.396923 245.011692c-0.275692-1.063385 0.157538-2.914462 0.748308-3.899077 3.268923-3.387077 4.096-4.214154 6.340923-4.214154l0.393846-0.275692c0.157538-0.157538 0.708923-0.551385 0.905846-0.708923 0.984615-0.551385 1.496615-0.708923 2.008615-0.905846 0.393846-0.118154 0.708923-0.236308 0.984615-0.393846 0.827077-0.787692 1.654154-1.142154 2.520615-1.339077 0.315077-0.118154 1.575385-0.315077 1.929846-0.315077 0.315077 0 0.866462 0 1.496615 0.196923l0.669538 0c-0.393846-0.669538-0.748308-1.299692-1.063385-1.969231-0.236308-0.512-0.354462-1.063385-0.354462-1.693538 0-0.275692 0.039385-0.905846 0.078769-1.181538 3.229538-16.344615 3.229538-16.344615 7.010462-16.699077l5.435077 0c2.520615 0.157538 4.017231 1.063385 5.12 3.072l0.866462 2.244923c7.168 3.308308 7.168 3.387077 8.073846 5.001846 0.157538 0.236308 0.512 1.142154 0.590769 1.378462l0.472615 1.220923c0.039385 0.236308 0.275692 1.299692 0.315077 1.536l0.275692 5.001846c21.976615 20.243692 21.976615 20.283077 22.252308 22.055385 0 0.196923 0.039385 1.339077 0 1.536l-0.590769 3.662769 1.181538-2.756923c0.078769-0.157538 0.354462-0.827077 0.472615-0.984615 0.196923-0.315077 0.748308-1.063385 0.984615-1.339077l2.363077-2.205538c0.708923-0.630154 1.536-0.984615 2.402462-1.024l2.835692-3.623385c0.157538-0.196923 0.708923-0.748308 0.827077-0.866462 0.393846-0.393846 0.905846-0.669538 1.378462-0.827077l6.144-2.087385c-0.236308-0.433231-0.393846-0.905846-0.590769-1.378462L708.371692 237.095385c-0.787692-0.827077-1.063385-1.929846-0.905846-2.993231l0.787692-6.537846c-0.433231-0.078769-0.827077-0.157538-1.260308-0.157538-3.229538-0.551385-7.286154-1.102769-10.043077-3.465846-0.472615-0.393846-0.827077-0.866462-1.063385-1.457231L694.153846 218.584615l-11.776-17.486769c-0.984615-1.378462-0.905846-3.308308 0.157538-4.608l8.507077-10.476308c0.275692-0.315077 0.590769-0.630154 0.905846-0.827077-0.078769-0.512-0.157538-0.984615-0.118154-1.260308l1.457231-15.202462-0.472615-2.323692c-0.078769-0.512-0.078769-0.945231 0-1.457231 0.157538-0.669538 0.551385-1.772308 0.905846-2.284308l1.929846-2.56c0.157538-0.787692 0.551385-1.496615 1.063385-2.048l1.339077-2.323692c0.118154-0.630154 0.354462-1.142154 0.669538-1.614769 0.590769-0.787692 1.654154-1.693538 2.520615-1.890462l3.780923-0.866462 0.866462-2.244923c0.275692-0.787692 0.827077-1.457231 1.575385-1.890462 0.590769-0.393846 1.732923-0.866462 2.441846-0.866462l5.356308 0c0.315077 0 0.827077 0.118154 1.102769 0.157538l7.561846 1.378462c0.236308 0.039385 1.299692 0.393846 1.536 0.512l5.513846 3.032615 4.844308 1.457231c0.236308-0.157538 0.551385-0.315077 0.827077-0.393846 0.669538-0.236308 1.811692-0.393846 2.402462-0.315077l8.625231 1.457231c0.315077 0.078769 1.063385 0.354462 1.299692 0.433231 2.008615 0.945231 3.938462 1.811692 5.907692 2.638769 1.536 0.708923 3.190154 1.378462 4.804923 2.126769-0.039385-0.905846 0.275692-1.851077 0.866462-2.56 1.220923-1.417846 3.190154-1.772308 4.844308-0.905846l7.561846 4.096-0.118154-1.457231c-0.039385-0.630154 0.354462-1.024 0.551385-1.575385-0.787692-0.551385-1.496615-1.102769-2.244923-1.654154l-0.315077 0.118154c-0.512 0.196923-1.024 0.354462-1.536 0.354462s-1.614769-0.196923-2.087385-0.354462c-16.265846-8.507077-16.265846-8.507077-17.250462-9.806769-0.590769-0.827077-0.984615-1.299692-1.417846-1.772308-1.063385-1.260308-2.599385-3.032615-2.993231-5.238154-1.339077-0.551385-1.929846-0.984615-2.756923-1.890462-0.433231-0.433231-0.905846-0.827077-1.378462-1.220923-66.953846-40.920615-145.368615-64.945231-229.454769-64.945231-81.841231 0-158.326154 22.764308-224.098462 61.676308 0.157538 0.039385 0.393846 0 0.512 0.078769l0.945231 0.472615 1.575385-0.472615c1.536-0.630154 3.229538 0 4.174769 1.181538C295.463385 133.395692 295.699692 133.789538 295.857231 134.301538 296.881231 134.695385 297.787077 135.483077 298.141538 136.625231l0.945231 2.599385C299.480615 138.673231 299.795692 138.24 300.228923 137.846154c-1.181538-0.984615-1.851077-2.717538-1.457231-4.214154 0.393846-1.220923 1.063385-2.166154 2.481231-3.111385L310.075077 124.849231C310.311385 124.691692 311.138462 124.179692 311.374769 124.061538l15.084308-6.262154C326.616615 117.76 327.522462 117.523692 327.68 117.444923 328.034462 117.366154 328.388923 117.326769 328.743385 117.326769l7.325538 0c0.393846 0 0.748308 0.078769 1.142154 0.118154 0 0 0.039385-0.078769 0.078769-0.157538 2.244923-3.584 2.678154-4.332308 4.804923-5.277538l9.019077-3.623385C351.271385 108.307692 352.019692 108.071385 352.216615 108.032l12.8-1.339077C366.710154 106.535385 368.482462 107.52 369.230769 109.095385c0.039385 0.118154 0.078769 0.236308 0.118154 0.354462 0.669538-0.708923 1.417846-1.457231 2.205538-2.205538 0.905846-0.787692 3.780923-2.402462 6.025846-1.260308l0.630154 0.275692c3.111385-1.457231 3.544615-1.614769 4.253538-1.693538 0.984615-0.236308 2.008615 0 2.756923 0.472615C387.780923 106.929231 388.962462 107.913846 389.080615 109.922462c0.039385 0.787692-0.315077 1.772308-0.787692 2.520615 0.472615 0.078769 0.905846 0.236308 1.299692 0.472615l3.150769-5.395692C392.979692 107.323077 393.609846 106.535385 393.846154 106.377846c6.301538-4.489846 6.380308-4.568615 8.073846-4.608 1.536 0.157538 3.465846 1.024 4.096 2.481231 0.551385 1.142154 0.393846 2.875077-0.275692 3.977846L402.904615 113.270154c0 0.039385-0.787692 1.102769-0.827077 1.102769-0.039385 0.078769-0.118154 0.078769-0.118154 0.078769 3.899077 0.827077 5.12 1.220923 5.828923 2.323692 0.078769 0 0.157538-0.078769 0.196923-0.157538-0.039385-0.078769-0.078769-0.157538-0.118154-0.275692-0.630154-1.339077-0.236308-3.584 0.787692-4.726154l6.498462-7.246769c0.275692-0.275692 1.024-0.866462 1.339077-1.063385l6.459077-4.174769c1.378462-1.890462 2.835692-2.678154 4.489846-2.835692 1.654154-0.196923 4.174769 1.417846 4.608 3.387077l0.354462 4.962462c1.220923-0.787692 2.126769-1.299692 2.756923-1.693538 0.472615-2.244923 2.402462-4.450462 3.820308-5.789538 0.354462-1.772308 1.575385-3.662769 4.726154-5.041231 0.984615-0.472615 2.126769-0.512 3.150769-0.039385 1.693538 0.315077 2.914462-1.024 4.096-2.284308 1.063385-1.142154 2.166154-2.323692 3.623385-3.229538 0.827077-0.669538 1.890462-1.063385 2.678154-1.417846 0.905846-0.393846 1.378462-0.630154 1.929846-1.063385 0-0.669538 0.669538-2.363077 2.756923-3.741538 2.323692-1.536 5.907692-1.693538 6.931692-1.693538s1.851077 0.118154 2.599385 0.315077c6.222769 1.654154 6.222769 5.907692 6.183385 7.719385-0.039385 0.118154-0.039385 0.157538-0.118154 0.196923 0.078769 0 0.157538 0 0.157538 0 0.945231-0.275692 2.166154-0.551385 3.465846-0.551385 0.236308 0 1.220923 0.078769 1.378462 0.078769 4.844308 0.905846 6.025846 4.450462 6.656 6.380308 0.196923 0.669538 0.433231 1.220923 0.669538 1.614769 1.024 1.299692 1.851077 1.536 5.474462 1.614769 1.378462 0.039385 2.638769 0.787692 3.308308 2.008615 0.157538 0.157538 0.236308 0.236308 0.315077 0.393846 0.866462-0.708923 1.851077-1.378462 2.756923-2.126769 4.214154-3.268923 8.625231-6.734769 13.154462-7.876923 1.575385-0.393846 3.702154 0.236308 4.686769 0.630154 0.984615-0.393846 2.166154-1.102769 3.623385-1.220923 2.244923-0.236308 4.962462-0.157538 7.601231 0 2.323692 0.078769 4.726154 0.157538 7.246769-0.039385 6.537846-0.630154 13.469538-1.220923 20.125538-0.433231 3.780923 0.590769 8.113231 1.260308 11.421538 4.017231 1.929846 1.536 3.072 3.387077 3.938462 4.923077 0.708923 1.142154 1.220923 2.087385 2.087385 2.756923 0.630154 0.551385 1.063385 1.260308 1.260308 2.008615 1.339077-0.472615 2.717538-0.787692 4.135385-0.787692 0.196923 0 0.905846 0.078769 1.063385 0.078769 1.575385 0.433231 2.56 0.630154 3.623385 0.866462 3.347692 0.748308 7.561846 1.654154 9.806769 4.844308 0.472615 0.669538 0.708923 1.654154 0.708923 2.481231 0 0.157538 0 0.236308 0 0.393846-0.039385 1.063385-0.551385 2.126769-1.339077 2.796308L591.556923 114.530462c-1.102769 0.905846-2.520615 1.142154-3.859692 0.669538l-1.693538-0.512c-0.472615 0.708923-1.142154 1.299692-1.851077 1.536 1.220923 2.402462 2.481231 4.883692 3.741538 7.522462 0.512 1.063385 0.512 2.244923 0.039385 3.229538 0.315077 0.708923 0.393846 1.457231 0.315077 2.126769l-2.008615 12.878769c-0.196923 1.102769-0.827077 2.087385-1.732923 2.638769 0.748308 0.748308 0.827077 1.417846 0.905846 2.481231 0.118154 0.748308-0.039385 1.457231-0.275692 2.087385-0.748308 1.575385-1.614769 3.465846-2.481231 5.238154l-1.457231 2.993231c-0.669538 1.339077-1.969231 2.244923-3.505231 2.244923-0.275692 0.196923-0.590769 0.393846-0.827077 0.472615-7.522462 2.953846-17.604923 6.695385-25.166769 9.452308l-1.929846 0.315077c-0.393846 0.078769-0.748308 0.078769-1.063385 0l-6.459077-1.220923-12.012308 6.695385C523.618462 180.342154 523.027692 180.775385 521.019077 180.775385c-0.315077 0-1.024-0.118154-1.339077-0.196923l-2.008615-0.630154L515.938462 181.208615c-0.196923 0.118154-1.142154 0.708923-1.378462 0.748308l-12.169846 4.292923c-5.001846 5.356308-11.224615 11.854769-16.738462 17.604923L479.783385 209.526154c-0.393846 0.236308-0.827077 0.472615-1.299692 0.590769l-8.073846 1.851077c-1.851077 0.433231-3.623385-0.196923-4.883692-1.142154-0.472615-0.354462-0.827077-0.748308-1.063385-1.181538l-2.520615-4.371692-4.135385 0c-0.512 0-1.024-0.157538-1.536-0.354462-0.590769-0.275692-1.181538-0.669538-1.969231-1.260308-0.630154-0.551385-1.102769-1.220923-1.299692-2.087385l-4.450462-17.447385c-0.157538-0.708923-0.118154-1.417846 0.078769-2.126769 0.512-1.614769 1.732923-2.441846 2.244923-2.796308 0.315077-0.196923 0.708923-0.393846 1.024-0.551385l1.732923-0.590769c0.039385-0.196923 0.078769-0.354462 0.078769-0.512-0.551385-0.630154-0.984615-1.299692-1.299692-2.166154-0.196923-0.669538-0.275692-1.299692-0.157538-1.969231l1.417846-7.798154c0.039385-0.354462 0.157538-0.708923 0.275692-0.905846 0.275692-0.590769 0.905846-1.693538 1.378462-2.126769 8.546462-7.207385 8.546462-7.207385 10.555077-7.404308l5.632-0.039385c-0.354462-0.315077-0.630154-0.708923-0.827077-1.102769L469.858462 152.694154c-0.472615-0.827077-0.984615-1.772308-1.339077-2.520615-0.472615-1.024-0.512-2.205538-0.118154-3.190154-0.590769-0.630154-0.945231-1.417846-1.063385-2.284308-0.078769-0.630154-0.157538-1.929846 0.078769-2.520615L470.449231 133.907692l-0.866462-2.284308-3.623385-0.708923c-2.717538 0.118154-6.183385 0.078769-9.885538 0-0.708923 0-1.299692-0.196923-1.851077-0.512-0.787692-0.472615-2.008615-1.614769-2.323692-2.481231L450.953846 125.321846c-0.078769-0.354462-0.196923-0.787692-0.196923-1.142154s0-1.220923 0.157538-1.614769c0.236308-0.866462 0.472615-1.693538 0.787692-2.56-0.078769-0.039385-0.078769-0.118154-0.078769-0.118154-0.315077-0.551385-0.512-1.142154-0.551385-1.811692l-0.078769-0.866462c-0.827077 1.220923-1.693538 1.929846-2.599385 2.402462l-6.301538 1.457231c-0.236308 0.078769-0.905846 0.196923-1.220923 0.196923l-1.457231 0c-0.827077 0.512-1.772308 1.102769-2.678154 1.732923-3.387077 2.244923-7.207385 4.765538-11.067077 5.632-0.630154 0.157538-1.220923 0.157538-1.851077-0.078769-0.078769 0.157538-0.236308 0.315077-0.354462 0.433231-2.796308 3.032615-4.096 4.489846-5.198769 5.238154l0.551385 0.196923c0.315077 0.118154 0.630154 0.315077 0.905846 0.551385 0.354462 0.236308 0.984615 0.787692 1.220923 1.142154 8.428308 12.209231 8.428308 12.209231 6.971077 14.848l-4.174769 4.883692c8.704 10.673231 8.664615 10.791385 8.349538 12.721231-0.118154 0.945231-1.024 2.363077-1.811692 2.993231-0.196923 0.157538-0.590769 0.472615-0.827077 0.551385-15.832615 8.467692-16.462769 8.861538-18.432 8.861538-0.669538 0-1.575385-0.315077-2.323692-0.748308-9.728 10.121846-9.846154 10.161231-12.209231 10.24l-2.481231 0c-0.315077 0-1.378462-0.236308-1.693538-0.275692C391.995077 189.952 391.68 189.833846 391.364923 189.676308 388.017231 195.623385 387.544615 196.135385 385.929846 196.686769L386.756923 197.277538c1.457231 0.866462 2.126769 2.481231 1.772308 4.135385-0.078769 0.433231-1.339077 6.301538-3.150769 17.92L384.472615 222.404923C384.433231 222.680615 384.393846 222.956308 384.275692 223.232l1.417846 0.945231C387.150769 225.122462 387.780923 226.855385 387.387077 228.470154L387.072 229.494154C386.481231 231.739077 385.851077 234.102154 384.787692 237.134769c-0.157538 0.393846-0.315077 0.708923-0.551385 1.024L392.467692 240.246154C393.846154 240.521846 394.909538 241.585231 395.303385 242.924308c0.275692 1.063385 0.078769 2.244923-0.512 3.150769-0.078769 0.157538-0.157538 0.275692-0.236308 0.393846L390.616615 252.179692c1.220923 0.512 2.087385 1.417846 2.520615 2.56 0.787692 1.929846 0.196923 4.096-1.417846 5.553231L385.378462 265.452308c3.072 1.457231 3.702154 2.087385 4.292923 3.544615C390.065231 269.942154 389.907692 271.675077 389.513846 272.699077L388.529231 274.313846C390.222769 275.298462 390.971077 276.48 390.971077 278.606769 390.774154 279.985231 390.616615 280.930462 390.459077 281.796923 390.144 283.372308 389.080615 284.396308 388.686769 284.750769c-7.719385 5.395692-7.719385 5.395692-9.452308 5.710769C379.037538 290.540308 378.761846 290.540308 378.525538 290.540308L375.059692 290.540308C373.720615 290.304 372.696615 289.910154 371.869538 289.319385 370.845538 290.146462 370.215385 290.304 369.152 290.461538l-3.938462 0.078769C362.299077 290.382769 361.235692 288.768 360.763077 288.216615L359.857231 285.932308c-11.460923-1.969231-12.248615-2.244923-13.390769-4.489846-0.551385-1.102769-0.393846-3.229538 0.196923-4.332308l2.087385-3.308308C348.041846 272.817231 347.687385 271.753846 347.844923 270.532923c0.196923-2.166154 1.772308-3.229538 2.481231-3.702154l0.157538-0.078769L332.681846 266.752c0.630154 0.630154 0.984615 1.457231 1.102769 2.363077l0.118154 0.945231c0.118154 1.220923-0.236308 3.150769-1.102769 4.017231L327.246769 279.433846C326.537846 280.103385 325.553231 280.497231 324.529231 280.497231L324.450462 280.497231C324.096 281.993846 323.702154 283.529846 323.308308 285.065846L326.183385 288.295385c11.579077-12.209231 11.697231-12.209231 13.942154-12.327385C342.212923 276.125538 343.552 276.558769 344.497231 277.661538 345.245538 278.528 345.757538 280.536615 345.6 281.6L344.379077 286.995692c1.575385 1.693538 2.323692 3.229538 1.299692 5.553231C345.481846 293.021538 344.772923 294.084923 344.379077 294.478769 339.140923 298.220308 338.786462 298.456615 336.935385 298.535385c0 0-0.078769 0-0.157538 0L332.327385 298.535385C332.169846 298.889846 331.972923 299.244308 331.736615 299.52L330.555077 300.898462C330.082462 301.292308 329.570462 301.686154 329.019077 301.883077L321.220923 304.876308C314.052923 307.633231 306.215385 310.626462 299.835077 312.989538 298.377846 313.580308 296.566154 313.107692 295.502769 311.847385L294.478769 310.547692c-0.787692-0.945231-1.063385-2.244923-0.787692-3.387077l0.787692-3.111385L281.6 310.232615C281.442462 310.311385 280.300308 310.705231 280.064 310.744615 279.748923 310.862769 279.394462 310.902154 279.000615 310.902154L275.377231 310.902154 271.911385 315.746462l0.393846 1.024c0.512 1.378462 0.236308 2.914462-0.787692 4.017231L266.515692 326.301538C265.846154 327.010462 264.979692 327.404308 263.995077 327.522462L246.153846 329.373538 243.869538 333.036308C243.712 333.312 243.239385 333.863385 243.003077 334.060308L226.343385 350.759385C224.925538 352.177231 222.680615 352.295385 221.065846 351.035077 220.711385 350.72 220.475077 350.523077 220.238769 350.365538 219.096615 354.697846 218.072615 359.108923 217.088 363.52 216.930462 364.386462 216.536615 364.977231 215.591385 366.473846 215.276308 366.867692 214.921846 367.261538 214.449231 367.537231c-5.828923 3.938462-12.918154 8.782769-19.574154 13.351385L183.296 388.529231C182.784 388.765538 182.272 388.883692 181.681231 388.883692L180.854154 388.883692 171.323077 405.307077c-1.181538 6.459077-2.244923 12.996923-3.190154 19.613538l-2.953846 9.964308 3.938462 0c2.481231 0 4.292923 1.496615 4.923077 3.938462 1.851077 9.885538 1.851077 9.885538 1.339077 11.224615-0.472615 1.969231-2.284308 3.584-4.568615 3.859692-0.078769 0.039385-0.236308 0.039385-0.433231 0.039385l-5.12 0c-3.387077-0.590769-4.371692-2.323692-4.765538-3.702154l-1.693538-4.844308c0-0.157538-0.118154-0.708923-0.157538-1.063385l-1.536 1.378462c-0.708923 0.708923-1.693538 1.063385-2.638769 1.063385-1.693538 0-4.056615 0-7.364923-1.732923-1.299692-0.669538-2.166154-2.126769-2.087385-3.662769l1.299692-31.271385-10.988308-3.741538c-0.984615 3.544615-2.402462 7.561846-5.907692 9.570462-1.496615 0.866462-3.387077 0.669538-4.608-0.590769l-8.625231-8.231385L110.08 407.118769c-4.214154 6.222769-9.058462 13.824-13.508923 20.676923l-3.977846 6.222769L88.221538 447.330462l-4.962462 26.112 4.844308 13.587692 5.868308-1.063385 4.017231-14.808615c0.472615-1.496615 1.693538-2.599385 3.229538-2.796308l17.604923-2.56c0.590769-0.078769 1.142154 0 1.732923 0.157538 0.669538 0.236308 1.339077 0.669538 1.929846 1.181538 5.435077-12.130462 5.513846-12.169846 7.522462-12.878769 0.275692-0.157538 0.827077-0.236308 1.063385-0.315077l11.106462-2.363077c0.393846-0.118154 0.708923-0.118154 1.142154-0.078769 0.708923 0.039385 2.323692 0.433231 2.835692 0.827077 5.316923 3.938462 11.736615 8.231385 18.077538 12.524308 4.529231 3.072 9.058462 6.104615 13.193846 9.019077l0.433231-0.905846c0.827077-1.693538 1.772308-3.584 2.599385-5.041231 1.220923-1.851077 2.520615-2.363077 3.505231-2.56 2.205538-0.630154 4.804923 0.708923 5.789538 2.914462 3.387077 8.388923 3.387077 8.388923 3.072 10.082462-0.196923 1.811692-2.008615 4.135385-4.923077 4.371692-0.118154 0-0.236308 0-0.315077 0L183.689846 482.737231c0 0.078769-0.078769 0.236308-0.078769 0.315077C183.532308 483.249231 183.453538 483.406769 183.374769 483.643077c0 0-0.078769 0.039385-0.078769 0.118154l0.433231-0.236308c0.196923-0.118154 1.063385-0.472615 1.260308-0.551385 0.472615-0.157538 0.866462-0.236308 1.299692-0.236308l2.993231 0c0.078769 0 0.157538-0.039385 0.157538-0.039385 0.630154-0.118154 1.536-0.118154 2.087385 0.039385 1.417846 0.393846 2.048 0.551385 2.678154 0.905846l5.277538 1.929846 11.421538 6.419692 0.118154 0.118154c0.945231-1.614769 2.363077-2.481231 4.056615-2.599385 1.063385-0.315077 3.072 0.551385 3.899077 1.299692l3.268923 2.481231c1.457231 1.063385 2.993231 2.244923 4.489846 3.387077 0.827077-0.984615 1.890462-1.693538 3.229538-2.008615 0.708923-0.078769 1.929846 0 2.56 0.196923 1.142154 0.196923 2.993231 0.551385 4.962462 0.866462 3.977846 0.708923 8.152615 1.417846 11.460923 2.323692 2.441846 0.708923 3.741538 2.481231 4.096 4.292923l1.299692 0c1.772308 0.078769 3.150769 0.748308 4.096 1.851077 0.984615 1.142154 1.457231 2.717538 1.299692 4.214154-0.039385 0.157538-0.039385 0.275692-0.039385 0.393846 1.260308 0.393846 2.520615 1.220923 3.387077 2.993231 2.087385 6.774154 2.087385 6.774154 2.087385 7.601231-0.157538 2.323692-1.457231 4.096-3.387077 4.923077 0.315077 0.945231 0.275692 2.008615 0 2.914462 0.078769 0.236308 0.196923 0.393846 0.275692 0.630154 2.126769 6.459077 2.638769 8.113231 1.457231 10.24-0.433231 0.708923-0.905846 1.181538-1.457231 1.536 0.945231 2.914462 1.417846 4.450462 1.496615 5.553231 2.323692 6.380308 2.323692 6.419692 2.323692 7.286154 0 1.890462-0.905846 3.505231-2.441846 4.450462 1.614769 4.568615 1.614769 4.647385 1.614769 5.513846 0 0.196923-0.039385 0.433231-0.039385 0.669538 4.096 0.039385 8.388923 0.196923 13.390769 0.551385 2.048 0.118154 3.623385 1.811692 3.623385 3.899077l0 2.008615c0 1.063385-0.433231 2.087385-1.181538 2.835692L276.873846 576.196923c0.118154 1.890462 0.118154 4.056615-0.196923 6.971077-0.157538 1.457231-1.102769 2.678154-2.481231 3.229538l-0.984615 0.393846c-0.551385 0.196923-0.827077 0.315077-1.614769 0.236308l14.139077 13.312 11.539692-1.536c1.063385-0.157538 2.166154 0.157538 2.953846 0.827077l5.868308 4.647385 18.904615 8.625231c0.590769 0.236308 1.102769 0.590769 1.536 1.024l1.142154 1.339077c0.472615 0.472615 0.787692 0.984615 0.905846 1.614769l10.988308 15.635692 8.782769 7.364923 0.433231-0.078769c1.024-0.354462 2.481231 0.630154 3.229538 1.614769 0.354462 0.472615 0.708923 1.142154 0.945231 1.772308 0.551385 1.063385 0.827077 2.914462 0.275692 4.017231l-0.354462 0.708923 2.599385 1.024c0.236308 0.078769 0.984615 0.512 1.142154 0.590769l11.776 8.625231 10.436923 4.017231 30.247385 4.096c0.157538 0.078769 1.024 0.236308 1.142154 0.315077 11.972923 5.750154 26.781538 13.154462 37.888 18.786462 1.063385 0.551385 1.811692 1.536 2.048 2.678154l4.174769 21.307077c0.078769 0.393846 0.118154 0.827077 0.078769 1.181538-0.078769 0.512-0.315077 1.890462-0.590769 2.363077l-7.561846 13.548308c-0.039385 0.118154-0.078769 0.236308-0.157538 0.315077l-6.695385 12.603077c-0.196923 0.315077-0.472615 0.669538-0.787692 0.905846l-0.787692 0.827077c-0.393846 0.354462-0.827077 0.669538-1.339077 0.827077l-3.780923 1.417846-2.205538 2.796308 5.238154 22.724923c0.078769 0.512 0.157538 1.339077 0.078769 1.851077-1.378462 8.231385-2.914462 18.628923-4.292923 27.648l-0.905846 6.065231c-0.157538 1.220923-0.905846 2.284308-2.008615 2.875077-8.388923 4.371692-19.259077 10.279385-28.120615 15.163077l7.640615 19.771077c0.590769 1.378462 0.236308 2.993231-0.827077 4.096l-0.196923 0.236308 0.196923 4.135385c0.039385 0.472615-0.039385 0.984615-0.196923 1.417846-0.157538 0.512-0.630154 1.496615-0.945231 1.890462l-0.669538 0.708923-1.693538 7.837538c-0.157538 0.590769-0.393846 1.142154-0.827077 1.614769l-0.866462 1.063385-1.851077 6.222769c-0.078769 0.472615-0.315077 0.866462-0.630154 1.220923-0.472615 0.708923-1.575385 1.693538-2.363077 1.929846l-0.827077 0.315077c0.984615 0.551385 1.851077 1.181538 2.638769 1.969231 0.590769 0.590769 0.945231 1.339077 1.024 2.166154l1.299692 8.231385c0.078769 0.433231 0.078769 0.827077-0.039385 1.260308-0.118154 0.984615-0.827077 2.481231-1.654154 3.072l-5.001846 3.584c0.275692 0.354462 0.551385 0.827077 0.787692 1.339077 0.787692 1.339077 0.630154 3.032615-0.354462 4.214154l1.063385 0.630154c0.472615 0.236308 0.827077 0.590769 1.142154 0.984615 3.505231 4.371692 6.971077 8.546462 10.752 13.036308 0.630154 0.748308 0.945231 1.614769 0.945231 2.481231l5.001846 1.693538c0.669538 0.236308 1.220923 0.590769 1.654154 1.063385 0.945231 1.063385 1.890462 2.087385 2.875077 2.993231 0.078769 0.078769 0.669538 0.748308 0.748308 0.866462l4.962462 7.325538 4.765538 2.717538c0.236308 0.157538 0.827077 0.551385 1.063385 0.787692l1.772308 1.536c0.315077 0.039385 0.669538 0.078769 0.984615 0.157538 0.472615 0.118154 1.063385 0.315077 1.339077 0.472615l5.907692 1.969231c-0.669538-1.220923-1.063385-2.048-1.260308-2.717538-0.630154-1.732923 0.236308-4.096 1.851077-5.001846 0.630154-0.354462 1.299692-0.315077 2.087385-0.551385 0.551385-0.236308 1.142154-0.551385 1.732923-0.433231 0.433231 0 1.339077 0.157538 1.732923 0.275692 4.253538 2.008615 4.371692 2.087385 5.159385 2.914462l3.387077 3.938462c0.787692 0.827077 1.220923 2.323692 1.063385 3.465846-0.196923 1.063385-0.827077 2.126769-1.693538 2.717538-0.472615 0.315077-0.984615 0.551385-1.536 0.669538-0.551385 0.078769-1.929846 0.078769-2.481231-0.078769-0.118154-0.078769-0.236308-0.118154-0.315077-0.157538 0.039385 0.039385 0.078769 0.078769 0.078769 0.078769 0.787692 1.142154 0.905846 2.56 0.393846 3.859692-0.157538 0.393846-0.669538 0.433231-0.945231 0.708923 20.401231 2.914462 41.038769 4.923077 62.267077 4.923077C635.785846 954.013538 747.638154 902.734769 827.943385 820.499692zM356.942769 181.681231 360.448 183.532308c0.236308 0.157538 0.630154 0.472615 0.827077 0.630154l9.058462 10.082462c1.378462 1.536 1.299692 3.938462-0.157538 5.395692L367.222154 202.633846 368.246154 203.460923l12.918154-7.010462C381.085538 196.371692 381.006769 196.332308 380.928 196.292923c-12.996923-8.822154-14.060308-9.531077-11.539692-13.548308l0.827077-0.984615L368.876308 180.972308C360.290462 182.311385 359.305846 182.862769 356.942769 181.681231zM375.886769 165.612308l2.717538-3.584c0.196923-0.196923 0.708923-0.669538 0.827077-0.827077l5.435077-4.647385C382.857846 155.923692 381.085538 155.293538 379.549538 154.781538L367.616 165.651692 375.886769 165.612308zM363.835077 167.069538 351.271385 169.550769c0.078769 0.472615 0.078769 0.866462 0 1.339077L350.050462 178.176c0.354462 0.078769 0.669538 0.196923 0.905846 0.354462l5.435077 2.835692C355.761231 181.051077 355.288615 180.539077 354.973538 180.066462c-1.181538-2.205538 0-4.135385 0.433231-4.844308l5.159385-5.828923c0.078769-0.078769 0.708923-0.669538 0.787692-0.748308C362.377846 168.014769 363.244308 167.463385 363.835077 167.069538z" p-id="3066"></path></svg>
