<?xml version="1.0" standalone="no"?><!DOCTYPE svg PUBLIC "-//W3C//DTD SVG 1.1//EN" "http://www.w3.org/Graphics/SVG/1.1/DTD/svg11.dtd"><svg t="1550039238406" class="icon" style="" viewBox="0 0 1024 1024" version="1.1" xmlns="http://www.w3.org/2000/svg" p-id="3034" xmlns:xlink="http://www.w3.org/1999/xlink" width="400" height="400"><defs><style type="text/css"></style></defs><path d="M328.967 1023.431l-31.876-200.998-183.157 88.713L357.92 443.893l215.034 112.285z" fill="#C6C6C6" p-id="3035"></path><path d="M697.886 1023.792l42.234-199.079 178.32 98.07-219.482-479.251L478.402 544.54z" fill="#C6C6C6" p-id="3036"></path><path d="M863.695 464.822l44.986-32.894-37.81-40.938 37.118-41.569-45.532-32.132 27.607-48.409-51.239-21.905 16.882-53.111-54.687-10.712 5.411-55.466-55.722 0.954-6.302-55.372-54.289 12.58-17.738-52.831-50.461 23.647-28.385-47.958-41.194 31.238-34.41-38.587-37.088 41.591-44.964-32.92-27.577 48.424-50.854-22.797L340.6 88.774l-54.494-11.663-5.37 55.466-55.73-0.017 6.34 55.365-54.502 11.631 17.771 52.817-50.868 22.766 28.419 47.936-44.985 32.893 37.808 40.94-37.118 41.567 45.53 32.133-27.608 48.407 51.24 21.906-16.881 53.111 54.687 10.713-5.408 55.465 55.717-0.952 6.304 55.371 54.29-12.579 17.737 52.831 50.461-23.647 28.386 47.957 41.195-31.237 34.408 38.585 37.092-41.59 44.964 32.92 27.578-48.426 50.85 22.799 16.85-53.121 54.491 11.665 5.374-55.468 55.728 0.019-6.339-55.366 54.502-11.629-17.771-52.819 50.865-22.764-28.418-47.937z" fill="#DDDDDD" p-id="3037"></path><path d="M511.964 66.178c-181.022 0-327.77 146.748-327.77 327.77 0 181.023 146.747 327.771 327.77 327.771 181.021 0 327.771-146.748 327.771-327.771 0-181.022-146.75-327.77-327.771-327.77z m0 645.381c-175.411 0-317.609-142.199-317.609-317.61S336.554 76.341 511.964 76.341c175.412 0 317.61 142.198 317.61 317.608s-142.198 317.61-317.61 317.61z" fill="#C6C6C6" p-id="3038"></path><path d="M310.209 316.501l152.283 228.82 263.163-302.745-252.346 187.399z" fill="#FFFFFF" p-id="3039"></path></svg>