<?xml version="1.0" standalone="no"?><!DOCTYPE svg PUBLIC "-//W3C//DTD SVG 1.1//EN" "http://www.w3.org/Graphics/SVG/1.1/DTD/svg11.dtd"><svg t="1558763605989" class="icon" style="" viewBox="0 0 1027 1024" version="1.1" xmlns="http://www.w3.org/2000/svg" p-id="903" xmlns:xlink="http://www.w3.org/1999/xlink" width="401.171875" height="400"><defs><style type="text/css"></style></defs><path d="M1003.8468086 622.57021325l-102.94468065-68.62978815c0-15.25106415 3.8127663-30.50212725 3.81276525-45.7531914 0-15.25106415 0-30.50212725-3.81276525-41.9404251l102.94468065-68.6297871c7.62553155-7.62553155 11.43829785-19.0638294 7.62553155-26.689362l-129.63404265-221.14042545c-3.8127663-7.62553155-15.25106415-11.43829785-26.68936095-7.62553155l-110.57021325 53.37872295c-22.8765957-19.0638294-49.5659577-30.50212725-76.25531865-41.9404251L660.69787205 31.59148925c0-11.43829785-7.62553155-19.0638294-19.0638294-19.0638294h-255.455319c-11.43829785 0-19.0638294 7.62553155-19.06383045 19.0638294l-7.62553155 122.0085111c-26.689362 11.43829785-53.37872295 26.689362-76.25531865 45.7531914L172.66382975 142.1617025c-7.62553155-3.8127663-19.0638294 0-22.8765957 7.62553155l-129.63404265 221.14042545c-7.62553155 11.43829785-3.8127663 22.8765957 7.62553155 30.50212725L126.91063835 470.0595749v41.9404251c0 15.25106415 0 30.50212725 3.8127663 41.9404251L23.9659577 622.57021325c-7.62553155 7.62553155-11.43829785 19.0638294-7.6255326 26.68936095l129.63404265 221.14042545c3.8127663 7.62553155 15.25106415 11.43829785 26.689362 7.6255326l110.57021325-53.378724c22.8765957 19.0638294 49.5659577 30.50212725 76.25531865 41.94042615l7.62553155 122.00851005c0 11.43829785 7.62553155 19.0638294 19.06383045 19.06383045h255.455319c11.43829785 0 19.0638294-7.62553155 19.0638294-19.06383045l7.6255326-122.00851005c26.689362-11.43829785 53.37872295-26.689362 76.25531865-41.94042615l110.57021325 53.378724c7.62553155 3.8127663 19.0638294 0 26.68936095-7.6255326l129.63404265-221.14042545c3.8127663-7.62553155 0-19.0638294-7.62553155-26.68936095z m-488.0340423 49.56595665c-87.6936165 0-160.1361699-72.4425534-160.13617095-160.1361699 0-87.6936165 72.4425534-160.1361699 160.13617095-160.1361699s160.1361699 72.4425534 160.1361699 160.1361699c0 87.6936165-72.4425534 160.1361699-160.1361699 160.1361699z" p-id="904"></path></svg>