<?xml version="1.0" standalone="no"?><!DOCTYPE svg PUBLIC "-//W3C//DTD SVG 1.1//EN" "http://www.w3.org/Graphics/SVG/1.1/DTD/svg11.dtd"><svg t="1563343392841" class="icon" viewBox="0 0 1024 1024" version="1.1" xmlns="http://www.w3.org/2000/svg" p-id="4775" xmlns:xlink="http://www.w3.org/1999/xlink" width="500" height="500"><defs><style type="text/css"></style></defs><path d="M456.191271 35.933505L331.859195 299.947296l-279.261099 41.955679a57.612312 57.612312 0 0 0-39.192745 23.945437 68.868714 68.868714 0 0 0-13.405351 44.002299 62.626527 62.626527 0 0 0 18.214905 41.95568l202.717566 205.889824-47.788543 291.745472a65.491793 65.491793 0 0 0 8.595798 44.923277 57.919304 57.919304 0 0 0 79.408799 20.97784L511.654633 879.549664l250.506108 135.895471a57.919304 57.919304 0 0 0 79.4088-20.97784 65.491793 65.491793 0 0 0 8.595797-45.025608l-47.788542-291.745472 202.717565-205.889824a62.626527 62.626527 0 0 0 18.214905-41.95568 68.868714 68.868714 0 0 0-13.405351-44.002299 57.612312 57.612312 0 0 0-39.192745-23.945437l-279.261099-41.955679L567.117995 35.933505a59.147276 59.147276 0 0 0-33.462213-31.927249 62.524196 62.524196 0 0 0-44.002298 0 59.147276 59.147276 0 0 0-33.462213 31.927249z" fill="#FACC14" p-id="4776"></path></svg>