<?xml version="1.0" standalone="no"?><!DOCTYPE svg PUBLIC "-//W3C//DTD SVG 1.1//EN" "http://www.w3.org/Graphics/SVG/1.1/DTD/svg11.dtd"><svg t="1561949018873" class="icon" viewBox="0 0 1024 1024" version="1.1" xmlns="http://www.w3.org/2000/svg" p-id="2032" xmlns:xlink="http://www.w3.org/1999/xlink" width="500" height="500"><defs><style type="text/css"></style></defs><path d="M385 389.8h64.5v-49.9H385v49.9z m0 77.8h64.5v-53.2H385v53.2z m248.6-133.9h-91.4v35.2h91.4v-35.2zM401.4 637h54.3v-70.8h-54.3V637z m232.2-243.5h-91.4v34.8h91.4v-34.8zM567.5 637h55.9v-70.8h-55.9V637zM512 98.2c-88.9 69.6-184.6 118.1-348.6 118.1v306c0 145.9 184.5 403.6 348.6 403.6 164.1 0 348.5-257.6 348.5-403.6v-306c-164 0-259.6-48.5-348.5-118.1z m2.9 329.2v-119h147.4v182.5c0 21.6-12.6 32.3-38 32.3h-27.8l-6.9-26.2c9.5 0.8 18.2 1.2 26.1 1.2 12 0 18-5.7 18-17.2v-28.6h-93.9c-4.9 30.8-17.7 56.6-38.4 77.3l-21.2-19.2c22.3-22.1 33.8-49.8 34.7-83.1zM358.1 314.1h118.8v179.2H358.1V314.1z m338.8 349.5H327.5V637h45.7v-97.8h278.4V637h45.3v26.6zM484.2 637h54.7v-70.8h-54.7V637z m0 0" p-id="2033"></path></svg>