<?xml version="1.0" standalone="no"?><!DOCTYPE svg PUBLIC "-//W3C//DTD SVG 1.1//EN" "http://www.w3.org/Graphics/SVG/1.1/DTD/svg11.dtd"><svg t="1550039297358" class="icon" style="" viewBox="0 0 1024 1024" version="1.1" xmlns="http://www.w3.org/2000/svg" p-id="543" xmlns:xlink="http://www.w3.org/1999/xlink" width="400" height="400"><defs><style type="text/css"></style></defs><path d="M329.016 1023.353L297.15 822.435l-183.082 88.679 243.887-467.067 214.948 112.239z" fill="#DC852F" p-id="544"></path><path d="M697.785 1023.714l42.218-199 178.25 98.031-219.397-479.058L478.39 544.653z" fill="#DC852F" p-id="545"></path><path d="M863.53 464.966l44.969-32.879-37.797-40.923 37.104-41.552-45.515-32.12 27.599-48.388-51.221-21.897 16.875-53.09-54.664-10.707 5.409-55.444-55.699 0.954-6.302-55.35-54.266 12.575-17.731-52.811-50.438 23.638-28.377-47.939-41.177 31.225-34.396-38.57-37.074 41.574-44.945-32.907-27.566 48.405-50.832-22.787-16.842 53.098-54.473-11.66-5.368 55.445-55.707-0.017 6.336 55.342-54.48 11.626 17.765 52.795-50.849 22.757 28.408 47.917-44.968 32.88 37.794 40.922-37.104 41.552 45.513 32.119-27.598 48.389 51.22 21.898-16.875 53.09 54.665 10.706-5.406 55.445 55.696-0.953 6.301 55.349 54.267-12.574 17.729 52.811 50.44-23.637 28.375 47.938 41.18-31.226 34.396 38.57 37.076-41.575 44.945 32.908 27.566-48.404 50.83 22.785 16.843-53.098 54.471 11.659 5.371-55.444 55.704 0.019-6.334-55.345 54.479-11.625-17.766-52.796 50.848-22.756-28.404-47.917z" fill="#F5CB38" p-id="546"></path><path d="M511.938 66.483c-180.949 0-327.639 146.69-327.639 327.64 0 180.951 146.688 327.64 327.639 327.64 180.951 0 327.641-146.688 327.641-327.64-0.001-180.95-146.69-327.64-327.641-327.64z m0 645.121c-175.341 0-317.481-142.143-317.481-317.482 0-175.341 142.141-317.482 317.481-317.482s317.483 142.141 317.483 317.482c0.001 175.341-142.143 317.482-317.483 317.482z" fill="#F6C03A" p-id="547"></path><path d="M310.264 316.705l152.221 228.729 263.058-302.623-252.244 187.323z" fill="#FFFFFF" p-id="548"></path></svg>